# xmcd
#
# Track frame offsets:
# 225
# 8314
# 15373
# 27646
# 39472
# 51743
# 62857
# 75199
# 85644
# 97087
# 108530
# 119193
# 130567
# 144561
# 154981
# 167490
# 182031
#
# Disc length: 2580 seconds
#
#
# Revision: 1
# Processed by: cddbd v1.5.2PL0 Copyright (c) Steve Scherf et al.
# Submitted via: FreeRIP 2.951 
#
DISCID=da0a1111
DTITLE=Various Artist - Back To The 50's  CD6
DYEAR=1998
DGENRE=Rock N' Roll
TTITLE0=Coasters - Yakety Yak
TTITLE1=Fats Domino - Whole Lotta Loving
TTITLE2=Elegants - Little Star
TTITLE3=Bobby Freeman - Do You Want To Dance
TTITLE4=Chuck Berry - Sweet Little Sixteen
TTITLE5=Bobby Hendricks - Itchy Twitchy Feeling
TTITLE6=Jerry Lee Lewis - Breathless
TTITLE7=Little Anthony And The Imperials - Tears On My Pillow
TTITLE8=Little Richard - Baby Face
TTITLE9=Ricky Nelson - Poor Little Fool
TTITLE10=Olympics - Western Movies
TTITLE11=Platters - Smoke Gets In Your Eyes
TTITLE12=Playmates - Beep Beep
TTITLE13=Poni-Tails - Born To Late
TTITLE14=Hank Ballard And The Midniters - Work With Me, Anna
TTITLE15=Cleftones - Little Girl Of Mine
TTITLE16=Del-Vikings - Come Go With Me
EXTD=
EXTT0=
EXTT1=
EXTT2=
EXTT3=
EXTT4=
EXTT5=
EXTT6=
EXTT7=
EXTT8=
EXTT9=
EXTT10=
EXTT11=
EXTT12=
EXTT13=
EXTT14=
EXTT15=
EXTT16=
PLAYORDER=
